<svg xmlns="http://www.w3.org/2000/svg" width="51" height="55" fill="#3e3e3e" ><path d="M30.758 37.038c-.545-.49-1.194-.931-1.932-1.311l-1.483-.714a1.08 1.08 0 0 0 .286.039h4.054c.583 0 1.056-.473 1.056-1.056 0-1.769-.506-3.264-1.503-4.443-.82-.97-1.894-1.634-3.199-1.983v-1.72c0-.583-.473-1.056-1.056-1.056h-1.907c-.583 0-1.056.473-1.056 1.056v1.621c-1.328.27-2.442.833-3.323 1.678-1.122 1.078-1.691 2.459-1.691 4.102 0 .956.16 1.795.477 2.497s.773 1.322 1.36 1.851c.55.495 1.208.932 1.953 1.301l2.241 1.003c.819.335 1.132.603 1.245.734.139.16.21.429.21.796 0 .425-.13.561-.172.605s-.156.163-.523.163c-.562 0-.792-.194-.916-.341-.232-.273-.355-.757-.355-1.398 0-.583-.473-1.056-1.056-1.056h-4.043c-.583 0-1.056.473-1.056 1.056 0 1.922.564 3.508 1.677 4.715.925 1.005 2.178 1.67 3.733 1.984v1.517c0 .583.473 1.056 1.056 1.056h1.907c.583 0 1.056-.473 1.056-1.056v-1.504c1.305-.271 2.39-.831 3.234-1.671 1.07-1.065 1.612-2.443 1.612-4.096 0-.961-.171-1.811-.509-2.527-.331-.7-.794-1.321-1.376-1.846l-.001.003zm-.472 7.718c-.868.864-2.049 1.367-3.544 1.512v2.411h-1.907v-2.423c-1.743-.184-3.081-.781-4.012-1.794s-1.398-2.345-1.398-4.001h4.043c0 .911.202 1.606.606 2.081s.978.714 1.721.714c.544 0 .971-.162 1.284-.486s.468-.77.468-1.338c0-.631-.156-1.128-.468-1.488s-.859-.7-1.644-1.02l-2.171-.971a7.52 7.52 0 0 1-1.716-1.139 4.47 4.47 0 0 1-1.103-1.499c-.255-.568-.384-1.255-.384-2.063 0-1.351.456-2.465 1.367-3.341s2.128-1.385 3.647-1.53V25.85h1.907v2.579c1.463.216 2.613.818 3.448 1.805s1.253 2.242 1.253 3.761h-4.054c0-.832-.16-1.472-.479-1.919s-.776-.672-1.367-.672c-.528 0-.938.166-1.23.497s-.438.79-.438 1.374.168 1.061.504 1.41.875.68 1.62.996l2.105.984c.66.34 1.23.725 1.709 1.157a4.77 4.77 0 0 1 1.128 1.512c.273.576.408 1.268.408 2.076 0 1.367-.434 2.483-1.302 3.347l.001-.002zm-3.22-9.867l-.416-.179c-.758-.322-1.111-.589-1.272-.757-.052-.053-.208-.215-.208-.676 0-.317.059-.545.175-.676.037-.041.122-.139.437-.139.287 0 .407.088.508.229.129.182.283.554.283 1.306 0 .376.196.706.493.893v-.001zm19.931-7.886c-1.796-3.839-4.326-7.087-7.519-9.652a26.89 26.89 0 0 0-3.28-2.256c.348-.439.556-.995.556-1.598a2.57 2.57 0 0 0-.913-1.966c1.029-1.088 1.649-2.231 1.852-3.423.287-1.687-.382-3.057-1.043-3.716-.74-.74-1.729-1.176-2.812-1.247-.105-.676-.4-1.142-.672-1.439-.534-.585-1.325-.907-2.226-.907a4.29 4.29 0 0 0-1.525.29c-1.402.531-2.738.812-3.863.812s-2.462-.281-3.864-.812a4.28 4.28 0 0 0-1.525-.29c-.901 0-1.691.322-2.227.907a2.71 2.71 0 0 0-.671 1.439c-1.082.072-2.072.507-2.812 1.247-.66.66-1.329 2.03-1.043 3.716.203 1.192.822 2.335 1.852 3.423-.557.473-.912 1.178-.912 1.966a2.57 2.57 0 0 0 .556 1.598 26.87 26.87 0 0 0-3.28 2.256c-3.194 2.566-5.723 5.812-7.519 9.652C1.95 31.616.857 37.097.857 43.294c0 5.178 2.082 8.333 6.551 9.929 4.233 1.512 10.722 1.636 18.144 1.636s13.912-.123 18.144-1.636c4.469-1.596 6.551-4.751 6.551-9.929 0-6.197-1.094-11.678-3.252-16.291h.001zm-20.385-6.676a1.52 1.52 0 0 1-1.425 1.612c-.843.047-1.561-.589-1.612-1.427-.109-1.772.313-3.251.924-4.438h6.319c.567 1.318 1.634 2.863 3.638 3.777.765.348 1.102 1.251.755 2.016-.243.532-.754.858-1.3.889a1.5 1.5 0 0 1-.716-.135c-3.224-1.469-4.734-4.053-5.44-6.037-.655.877-1.242 2.13-1.142 3.742l-.001.001zm-9.684-5.307a1.522 1.522 0 1 1 0-3.043h17.248a1.521 1.521 0 1 1 0 3.043H16.928zM33.841 4.204c.881.075 1.584.456 2.062.934.715.715 1.768 3.079-1.042 5.875a2.58 2.58 0 0 0-.685-.093h-2.953c1.417-2.386 2.403-4.85 2.618-6.716zM21.313 2.078c1.561.591 2.998.881 4.238.881s2.678-.289 4.238-.881 3.187-.008 3.021 1.85c-.163 1.813-1.24 4.458-2.823 6.993h-8.869c-1.584-2.535-2.661-5.18-2.823-6.993-.167-1.858 1.46-2.441 3.021-1.85h-.002zM15.2 5.14c.479-.479 1.181-.86 2.062-.935.214 1.866 1.202 4.33 2.619 6.717h-2.953a2.54 2.54 0 0 0-.686.094c-2.811-2.796-1.755-5.16-1.04-5.875L15.2 5.14zm10.351 48.663c-15.919 0-23.64-.694-23.64-10.509 0-15.92 7.285-23.771 13.876-27.485a2.56 2.56 0 0 0 1.141.267h6.401a9.43 9.43 0 0 0-.81 4.502c.084 1.357 1.213 2.42 2.571 2.42a2.07 2.07 0 0 0 .144-.004h.016a2.58 2.58 0 0 0 2.415-2.731 4.5 4.5 0 0 1 .082-1.192 10.99 10.99 0 0 0 5.008 4.514 2.56 2.56 0 0 0 1.067.232 2.37 2.37 0 0 0 .146-.004 2.57 2.57 0 0 0 2.2-1.506c.285-.626.309-1.327.069-1.971a2.56 2.56 0 0 0-1.346-1.442c-1.507-.686-2.393-1.792-2.915-2.816h2.199a2.56 2.56 0 0 0 1.141-.267c6.59 3.714 13.876 11.566 13.876 27.485 0 9.815-7.722 10.509-23.64 10.509l-.001-.001z"/></svg>